<svg xmlns="http://www.w3.org/2000/svg" viewBox="0 0 490 287" width="490" height="287">
  <g fill="#111" fill-rule="evenodd">
    <path d="M 270 237 L 269 238 L 267 238 L 266 239 L 263 239 L 262 240 L 258 240 L 257 241 L 255 241 L 255 242 L 256 243 L 257 243 L 258 244 L 263 244 L 264 243 L 266 243 L 267 242 L 269 242 L 270 241 L 273 241 L 274 240 L 274 238 L 273 238 L 272 237 Z M 373 230 L 372 231 L 371 231 L 371 232 L 368 235 L 368 237 L 369 237 L 370 238 L 372 238 L 373 237 L 375 237 L 378 234 L 378 233 L 379 232 L 379 231 L 378 230 Z M 466 227 L 465 228 L 464 228 L 463 229 L 462 229 L 461 230 L 457 230 L 456 231 L 448 231 L 447 232 L 446 232 L 446 234 L 447 235 L 458 235 L 459 234 L 462 234 L 463 233 L 464 233 L 465 232 L 466 232 L 469 229 L 469 228 L 468 227 Z M 359 225 L 355 229 L 355 233 L 356 233 L 359 236 L 359 237 L 358 238 L 358 244 L 357 245 L 356 245 L 355 246 L 353 246 L 352 247 L 350 247 L 348 249 L 348 250 L 349 251 L 352 251 L 353 250 L 355 250 L 356 249 L 360 249 L 361 248 L 367 248 L 368 247 L 372 247 L 373 246 L 374 246 L 374 245 L 375 244 L 374 243 L 369 243 L 368 244 L 365 244 L 364 245 L 363 245 L 361 243 L 361 233 L 362 232 L 363 232 L 364 231 L 364 230 L 365 229 L 365 226 L 364 225 Z M 319 224 L 318 225 L 317 225 L 315 227 L 315 228 L 313 230 L 313 231 L 316 231 L 317 230 L 319 230 L 323 226 L 323 225 L 322 224 Z M 424 223 L 421 226 L 421 227 L 420 228 L 420 229 L 419 230 L 419 232 L 418 233 L 418 234 L 417 235 L 417 236 L 416 237 L 416 240 L 417 240 L 418 239 L 418 238 L 420 236 L 420 235 L 421 234 L 424 234 L 425 235 L 426 235 L 428 237 L 430 237 L 430 234 L 429 233 L 428 233 L 426 231 L 425 231 L 424 230 L 424 228 L 425 227 L 425 226 L 426 225 L 426 223 Z M 305 223 L 304 224 L 304 226 L 303 227 L 303 232 L 301 234 L 297 234 L 296 235 L 295 235 L 294 234 L 295 233 L 295 232 L 297 230 L 297 229 L 299 227 L 299 226 L 300 225 L 299 224 L 298 224 L 297 225 L 297 226 L 292 231 L 292 232 L 290 234 L 290 235 L 289 236 L 289 238 L 288 239 L 288 240 L 287 241 L 287 242 L 285 244 L 285 245 L 284 246 L 284 248 L 287 248 L 288 247 L 288 246 L 289 245 L 289 243 L 291 241 L 292 241 L 295 244 L 295 245 L 296 246 L 297 246 L 297 242 L 296 241 L 296 240 L 295 239 L 296 238 L 298 238 L 299 237 L 300 237 L 302 239 L 302 249 L 301 250 L 301 265 L 302 266 L 303 266 L 304 265 L 304 242 L 306 240 L 310 240 L 311 239 L 313 239 L 314 238 L 316 238 L 318 240 L 314 244 L 312 244 L 310 246 L 311 247 L 313 247 L 314 246 L 317 246 L 318 247 L 317 248 L 316 248 L 316 250 L 318 250 L 319 251 L 321 251 L 322 252 L 323 252 L 324 253 L 325 253 L 326 252 L 329 252 L 330 251 L 331 251 L 333 249 L 334 249 L 337 246 L 337 245 L 336 244 L 334 244 L 332 246 L 331 246 L 329 248 L 328 248 L 327 249 L 324 249 L 323 248 L 323 246 L 324 245 L 324 242 L 323 242 L 322 241 L 321 241 L 320 240 L 320 238 L 322 236 L 323 236 L 324 235 L 327 235 L 328 234 L 328 233 L 326 231 L 325 232 L 324 232 L 323 233 L 321 233 L 320 234 L 318 234 L 317 235 L 316 235 L 315 236 L 312 236 L 311 237 L 308 237 L 307 238 L 305 236 L 305 233 L 306 232 L 306 227 L 307 226 L 307 224 L 306 223 Z M 410 220 L 409 221 L 409 226 L 408 227 L 408 229 L 409 230 L 409 232 L 408 233 L 408 238 L 407 239 L 406 239 L 404 237 L 404 236 L 403 235 L 403 231 L 405 229 L 405 227 L 404 226 L 403 226 L 403 227 L 402 228 L 402 229 L 398 233 L 394 233 L 393 234 L 391 234 L 390 235 L 388 235 L 386 233 L 386 230 L 387 229 L 387 228 L 386 227 L 386 225 L 385 224 L 385 223 L 384 222 L 383 223 L 383 231 L 384 232 L 384 239 L 383 240 L 383 252 L 382 253 L 382 255 L 383 256 L 386 256 L 386 240 L 387 239 L 388 239 L 389 238 L 392 238 L 393 237 L 394 238 L 394 241 L 393 242 L 393 244 L 395 244 L 396 243 L 396 241 L 397 240 L 397 239 L 399 237 L 401 237 L 405 241 L 406 241 L 407 242 L 407 249 L 406 250 L 406 251 L 407 252 L 407 253 L 409 253 L 409 252 L 410 251 L 410 247 L 411 246 L 412 247 L 413 247 L 414 248 L 431 248 L 432 247 L 435 247 L 436 246 L 437 246 L 438 245 L 438 244 L 437 244 L 436 243 L 431 243 L 430 244 L 414 244 L 413 245 L 412 245 L 411 246 L 410 245 L 410 239 L 411 238 L 411 230 L 412 229 L 412 221 L 411 220 Z M 444 133 L 443 134 L 443 136 L 444 137 L 447 137 L 448 136 L 448 134 L 447 133 Z M 369 125 L 367 127 L 366 127 L 363 130 L 362 130 L 357 135 L 357 136 L 356 137 L 356 138 L 357 139 L 359 139 L 360 138 L 360 137 L 361 136 L 361 135 L 362 134 L 363 134 L 364 133 L 368 133 L 369 134 L 369 136 L 370 137 L 371 137 L 375 133 L 376 133 L 377 132 L 379 132 L 380 133 L 382 133 L 383 134 L 385 134 L 386 135 L 388 133 L 386 131 L 385 131 L 384 130 L 383 130 L 382 129 L 382 128 L 381 127 L 379 127 L 378 128 L 377 128 L 376 129 L 373 129 L 372 130 L 370 130 L 369 129 L 369 128 L 370 127 L 370 125 Z M 168 116 L 167 117 L 167 119 L 166 120 L 166 126 L 167 127 L 167 128 L 170 131 L 170 132 L 164 138 L 159 138 L 158 137 L 157 137 L 156 138 L 155 138 L 155 140 L 156 141 L 157 141 L 158 142 L 179 142 L 180 141 L 186 141 L 187 140 L 187 138 L 186 137 L 183 137 L 182 138 L 170 138 L 169 137 L 170 136 L 170 135 L 172 133 L 172 132 L 174 130 L 174 129 L 179 124 L 179 123 L 180 122 L 180 118 L 178 116 L 175 116 L 174 117 L 173 117 L 172 118 L 171 118 L 170 117 L 170 116 Z M 174 119 L 176 119 L 177 120 L 177 122 L 175 124 L 173 124 L 171 122 Z M 209 111 L 209 112 L 208 113 L 208 114 L 209 115 L 209 118 L 208 119 L 208 123 L 207 124 L 204 124 L 203 123 L 203 120 L 204 119 L 204 116 L 202 114 L 201 115 L 201 124 L 200 125 L 200 126 L 197 129 L 196 129 L 195 130 L 193 130 L 192 129 L 192 128 L 193 127 L 193 126 L 194 125 L 194 124 L 195 123 L 195 122 L 196 121 L 196 118 L 195 117 L 191 117 L 190 118 L 187 118 L 186 119 L 185 119 L 184 120 L 184 121 L 189 121 L 190 120 L 191 120 L 193 122 L 191 124 L 190 124 L 189 125 L 187 125 L 185 127 L 185 128 L 188 128 L 189 129 L 189 132 L 190 133 L 195 133 L 196 132 L 198 132 L 199 133 L 199 138 L 200 139 L 201 139 L 202 138 L 202 137 L 203 136 L 203 133 L 204 132 L 204 131 L 206 129 L 207 129 L 208 130 L 208 134 L 207 135 L 207 153 L 208 154 L 210 154 L 211 153 L 211 148 L 210 147 L 210 130 L 211 129 L 211 122 L 212 121 L 212 112 L 211 111 Z M 367 109 L 366 110 L 363 110 L 362 111 L 361 111 L 357 115 L 357 117 L 356 118 L 356 120 L 358 122 L 361 122 L 362 121 L 363 121 L 367 117 L 367 116 L 369 114 L 369 110 L 368 110 Z M 319 107 L 318 108 L 318 109 L 306 121 L 306 122 L 305 123 L 304 123 L 303 124 L 302 124 L 301 125 L 300 125 L 299 126 L 299 128 L 300 128 L 301 129 L 302 129 L 303 128 L 305 128 L 306 127 L 308 127 L 309 126 L 312 126 L 313 125 L 317 125 L 318 124 L 319 124 L 320 125 L 320 128 L 319 129 L 319 139 L 318 140 L 318 144 L 319 145 L 319 150 L 320 151 L 322 151 L 323 150 L 323 147 L 322 146 L 322 128 L 323 127 L 323 126 L 325 124 L 326 124 L 327 123 L 331 123 L 332 122 L 332 121 L 331 120 L 326 120 L 325 121 L 319 121 L 318 122 L 312 122 L 311 121 L 311 120 L 315 116 L 328 116 L 328 114 L 327 113 L 324 113 L 323 112 L 322 112 L 321 111 L 321 107 Z M 380 106 L 379 107 L 379 117 L 378 118 L 378 122 L 379 123 L 380 123 L 381 122 L 381 117 L 382 116 L 382 108 Z M 412 105 L 411 106 L 411 107 L 412 108 L 412 115 L 411 116 L 411 120 L 410 121 L 405 121 L 404 122 L 399 122 L 398 123 L 396 123 L 395 122 L 395 121 L 400 116 L 401 116 L 402 115 L 403 115 L 404 114 L 404 111 L 401 111 L 400 112 L 399 112 L 398 113 L 394 113 L 393 114 L 392 114 L 390 116 L 392 116 L 393 117 L 393 119 L 391 121 L 391 125 L 392 125 L 393 126 L 403 126 L 404 125 L 406 125 L 407 124 L 408 124 L 409 123 L 410 123 L 411 124 L 411 135 L 410 136 L 410 140 L 411 141 L 411 144 L 410 145 L 410 147 L 412 149 L 413 149 L 414 148 L 414 147 L 415 146 L 415 144 L 414 143 L 414 124 L 416 122 L 421 122 L 422 121 L 426 121 L 427 120 L 431 120 L 433 118 L 433 116 L 432 116 L 431 115 L 430 115 L 429 116 L 428 116 L 427 117 L 425 117 L 424 118 L 419 118 L 418 119 L 417 119 L 414 116 L 415 115 L 415 106 L 414 105 Z M 263 105 L 262 106 L 262 107 L 261 108 L 261 109 L 260 110 L 258 110 L 258 111 L 256 113 L 255 113 L 250 118 L 249 118 L 241 126 L 241 129 L 243 129 L 250 122 L 252 122 L 253 123 L 253 124 L 254 125 L 254 126 L 256 126 L 256 123 L 255 122 L 255 121 L 254 120 L 254 118 L 256 116 L 257 116 L 260 113 L 261 113 L 262 114 L 262 120 L 261 121 L 261 127 L 260 128 L 259 128 L 258 129 L 255 129 L 254 130 L 252 130 L 250 132 L 251 133 L 252 133 L 253 134 L 253 137 L 254 138 L 256 138 L 257 137 L 260 137 L 261 138 L 261 139 L 260 140 L 260 141 L 259 142 L 259 144 L 260 145 L 260 146 L 263 146 L 264 145 L 265 145 L 266 144 L 267 144 L 268 143 L 270 143 L 271 142 L 272 142 L 273 141 L 274 141 L 275 140 L 276 140 L 277 139 L 277 137 L 276 136 L 274 136 L 273 137 L 272 137 L 271 138 L 270 138 L 269 139 L 268 139 L 267 140 L 266 140 L 265 141 L 264 141 L 263 140 L 263 136 L 264 135 L 264 132 L 265 131 L 265 128 L 264 127 L 264 122 L 266 120 L 268 120 L 269 119 L 270 119 L 271 118 L 272 118 L 273 117 L 274 117 L 275 116 L 275 114 L 274 113 L 272 113 L 271 114 L 270 114 L 268 116 L 267 116 L 266 117 L 265 116 L 265 106 L 264 105 Z M 241 50 L 241 55 L 243 57 L 243 58 L 244 58 L 245 59 L 246 59 L 247 60 L 249 60 L 250 59 L 253 59 L 254 58 L 255 58 L 256 57 L 257 57 L 259 55 L 260 55 L 262 53 L 262 51 L 261 50 L 260 50 L 258 52 L 257 52 L 255 54 L 254 54 L 253 55 L 252 55 L 251 56 L 247 56 L 243 52 L 243 50 Z M 180 46 L 180 47 L 178 49 L 178 51 L 177 52 L 177 53 L 178 54 L 178 56 L 180 58 L 187 58 L 188 57 L 190 57 L 191 56 L 192 56 L 193 55 L 194 55 L 195 54 L 197 54 L 198 53 L 200 53 L 200 52 L 201 51 L 200 50 L 194 50 L 193 51 L 192 51 L 191 52 L 190 52 L 189 53 L 188 53 L 187 54 L 186 54 L 185 55 L 182 55 L 180 53 L 180 47 L 181 46 Z M 189 36 L 188 37 L 185 37 L 184 38 L 182 38 L 180 40 L 177 40 L 176 41 L 175 41 L 174 42 L 173 42 L 172 43 L 172 45 L 175 45 L 176 44 L 178 44 L 179 43 L 181 43 L 182 42 L 183 42 L 184 41 L 185 41 L 186 40 L 189 40 L 190 39 L 192 39 L 193 38 L 193 37 L 192 36 Z M 124 33 L 117 40 L 117 41 L 115 43 L 115 44 L 111 48 L 111 49 L 110 50 L 110 51 L 111 52 L 111 53 L 113 53 L 115 51 L 115 49 L 117 47 L 117 46 L 119 44 L 121 44 L 127 50 L 128 50 L 128 47 L 127 46 L 127 45 L 125 43 L 124 43 L 122 41 L 122 40 L 124 38 L 124 37 L 125 36 L 125 35 L 126 34 L 126 33 Z M 260 30 L 259 31 L 257 31 L 256 32 L 256 33 L 257 34 L 260 34 L 261 35 L 261 39 L 260 40 L 260 41 L 259 42 L 260 43 L 261 42 L 262 42 L 263 41 L 263 40 L 264 39 L 264 31 L 263 30 Z M 380 29 L 379 30 L 378 30 L 377 31 L 377 32 L 376 33 L 376 34 L 375 35 L 375 41 L 376 42 L 380 42 L 384 38 L 384 37 L 385 36 L 385 35 L 386 34 L 386 31 L 385 30 L 385 29 Z M 238 28 L 237 29 L 236 29 L 235 30 L 234 30 L 233 31 L 232 31 L 231 32 L 230 32 L 229 33 L 229 34 L 228 35 L 229 36 L 231 36 L 232 35 L 233 35 L 234 34 L 235 34 L 236 33 L 239 33 L 240 34 L 240 37 L 239 38 L 239 40 L 238 41 L 238 42 L 237 43 L 237 45 L 236 46 L 236 49 L 237 50 L 238 50 L 239 49 L 239 46 L 240 45 L 240 43 L 241 42 L 241 41 L 243 39 L 244 39 L 246 37 L 248 37 L 249 38 L 249 46 L 251 46 L 252 45 L 252 29 L 250 29 L 249 30 L 249 32 L 247 34 L 244 34 L 243 33 L 243 31 L 242 30 L 242 29 L 241 28 Z M 184 28 L 183 29 L 180 29 L 179 30 L 179 31 L 178 32 L 178 35 L 179 36 L 183 36 L 187 32 L 187 29 L 186 28 Z M 159 27 L 158 28 L 158 30 L 159 31 L 159 37 L 156 40 L 155 40 L 154 41 L 153 41 L 152 42 L 151 42 L 150 43 L 149 43 L 148 42 L 148 40 L 152 36 L 152 31 L 151 30 L 151 29 L 150 28 L 147 28 L 146 29 L 145 29 L 144 30 L 142 30 L 140 32 L 140 34 L 141 34 L 142 33 L 144 33 L 145 32 L 148 32 L 149 33 L 149 34 L 147 36 L 145 36 L 144 37 L 143 37 L 142 38 L 141 38 L 141 39 L 142 40 L 143 40 L 145 42 L 145 45 L 150 45 L 151 44 L 154 44 L 155 43 L 157 43 L 158 44 L 158 47 L 159 48 L 159 49 L 157 51 L 155 51 L 154 50 L 153 50 L 153 59 L 154 60 L 154 61 L 155 61 L 156 62 L 156 65 L 157 66 L 159 66 L 160 65 L 161 65 L 162 64 L 164 64 L 165 63 L 171 63 L 172 62 L 174 62 L 175 61 L 173 59 L 169 59 L 168 58 L 168 52 L 167 51 L 166 51 L 165 50 L 162 50 L 160 48 L 160 42 L 161 41 L 161 40 L 162 39 L 165 39 L 166 38 L 167 38 L 169 36 L 170 36 L 170 34 L 169 33 L 168 33 L 167 34 L 166 34 L 165 35 L 164 35 L 163 36 L 162 36 L 161 35 L 161 27 Z M 161 53 L 162 52 L 163 52 L 164 53 L 165 53 L 166 54 L 166 56 L 161 61 L 160 61 L 159 62 L 158 62 L 156 60 L 156 58 L 155 57 L 155 56 L 157 54 L 158 54 L 159 53 Z M 132 27 L 131 28 L 131 32 L 132 33 L 132 40 L 131 41 L 131 65 L 133 67 L 134 66 L 135 66 L 136 65 L 136 64 L 135 63 L 135 61 L 134 60 L 134 49 L 135 48 L 140 48 L 141 47 L 142 47 L 142 46 L 141 45 L 139 45 L 138 44 L 137 45 L 136 45 L 134 43 L 134 28 L 133 27 Z M 335 26 L 334 27 L 334 70 L 335 71 L 337 71 L 337 70 L 338 69 L 338 57 L 337 56 L 337 55 L 338 54 L 338 44 L 337 43 L 337 39 L 338 38 L 338 29 L 337 28 L 337 27 L 336 26 Z M 291 26 L 291 34 L 289 36 L 287 36 L 286 37 L 285 37 L 283 39 L 284 40 L 286 40 L 287 39 L 289 39 L 290 40 L 290 42 L 289 43 L 289 44 L 288 45 L 288 50 L 289 51 L 291 51 L 293 49 L 294 49 L 295 48 L 295 47 L 296 46 L 296 45 L 297 44 L 297 40 L 295 40 L 294 39 L 294 38 L 293 37 L 293 27 L 292 26 Z M 421 25 L 421 50 L 420 51 L 420 61 L 419 62 L 420 63 L 420 64 L 423 64 L 424 63 L 424 61 L 423 60 L 423 49 L 425 47 L 426 47 L 427 46 L 430 46 L 431 45 L 432 45 L 433 44 L 442 44 L 443 45 L 443 46 L 441 48 L 441 49 L 440 50 L 440 53 L 441 53 L 442 54 L 446 54 L 447 53 L 464 53 L 465 52 L 465 49 L 464 48 L 463 48 L 462 49 L 460 49 L 459 50 L 448 50 L 447 51 L 445 51 L 444 50 L 444 49 L 445 48 L 445 47 L 449 43 L 449 42 L 450 41 L 449 40 L 443 40 L 442 41 L 438 41 L 437 40 L 437 38 L 440 35 L 441 35 L 442 34 L 444 34 L 445 33 L 446 33 L 447 32 L 447 30 L 446 29 L 444 29 L 443 30 L 442 30 L 441 31 L 439 31 L 438 32 L 436 32 L 435 33 L 435 34 L 436 35 L 436 36 L 434 38 L 434 39 L 431 42 L 430 42 L 429 43 L 427 43 L 426 44 L 425 44 L 424 43 L 424 26 L 423 25 Z M 302 24 L 302 25 L 301 26 L 302 27 L 302 30 L 301 31 L 301 43 L 300 44 L 300 45 L 301 46 L 301 62 L 302 63 L 304 63 L 304 62 L 305 61 L 305 60 L 304 59 L 304 46 L 305 45 L 310 45 L 311 44 L 314 44 L 317 47 L 318 47 L 320 45 L 320 44 L 322 42 L 324 42 L 325 43 L 325 44 L 327 46 L 327 47 L 329 47 L 329 45 L 328 44 L 328 43 L 327 42 L 327 41 L 325 39 L 325 38 L 324 37 L 324 35 L 325 34 L 325 31 L 323 29 L 322 29 L 321 30 L 320 30 L 319 31 L 316 31 L 315 32 L 314 32 L 313 33 L 312 33 L 312 35 L 313 36 L 314 36 L 315 35 L 317 35 L 318 34 L 320 34 L 321 35 L 321 38 L 320 39 L 320 40 L 317 43 L 315 41 L 312 41 L 311 42 L 305 42 L 303 40 L 303 39 L 304 38 L 304 32 L 305 31 L 305 25 L 304 24 Z M 270 23 L 270 33 L 271 34 L 271 37 L 270 38 L 270 44 L 271 45 L 271 49 L 270 50 L 269 50 L 268 51 L 266 51 L 265 52 L 265 53 L 266 54 L 266 56 L 268 58 L 270 58 L 271 59 L 272 59 L 273 58 L 275 58 L 278 55 L 278 54 L 279 53 L 279 52 L 278 51 L 278 50 L 277 50 L 276 49 L 273 49 L 272 48 L 272 47 L 273 46 L 273 39 L 275 37 L 277 37 L 278 36 L 279 36 L 280 35 L 281 35 L 283 33 L 283 32 L 282 31 L 281 31 L 280 32 L 279 32 L 278 33 L 275 33 L 274 32 L 274 28 L 273 27 L 273 25 L 271 23 Z M 393 21 L 393 36 L 392 37 L 390 37 L 389 38 L 389 39 L 390 40 L 390 42 L 386 46 L 386 47 L 388 47 L 389 48 L 390 48 L 391 49 L 392 49 L 393 48 L 394 48 L 395 47 L 397 47 L 398 48 L 398 50 L 396 52 L 395 52 L 394 53 L 393 53 L 392 54 L 391 54 L 390 55 L 387 55 L 386 56 L 382 56 L 381 55 L 380 55 L 378 53 L 378 52 L 377 51 L 376 52 L 376 53 L 377 54 L 377 56 L 378 57 L 378 58 L 379 58 L 380 59 L 388 59 L 389 58 L 390 58 L 391 57 L 392 57 L 394 55 L 395 55 L 396 54 L 397 54 L 398 55 L 401 55 L 407 49 L 409 49 L 410 48 L 411 48 L 413 46 L 413 45 L 415 43 L 415 39 L 414 39 L 413 38 L 412 38 L 411 39 L 410 39 L 409 38 L 408 38 L 405 41 L 405 45 L 402 48 L 401 48 L 399 46 L 399 45 L 398 44 L 396 44 L 395 43 L 395 37 L 398 34 L 399 34 L 400 33 L 401 33 L 402 32 L 403 32 L 404 31 L 405 31 L 405 30 L 406 29 L 405 28 L 403 28 L 402 29 L 401 29 L 400 30 L 399 30 L 398 31 L 396 29 L 396 22 L 395 21 Z M 50 20 L 49 21 L 49 24 L 48 25 L 48 31 L 44 35 L 32 35 L 31 36 L 30 36 L 28 38 L 27 38 L 20 45 L 20 48 L 21 49 L 23 49 L 24 50 L 27 50 L 28 49 L 30 49 L 31 48 L 32 48 L 35 45 L 35 40 L 36 39 L 39 39 L 40 38 L 46 38 L 47 39 L 47 58 L 48 59 L 48 69 L 50 71 L 52 71 L 53 70 L 53 67 L 52 66 L 52 64 L 51 63 L 51 56 L 50 55 L 50 42 L 51 41 L 52 41 L 53 42 L 54 42 L 55 43 L 63 43 L 64 42 L 66 42 L 67 41 L 69 41 L 70 40 L 70 38 L 69 37 L 70 36 L 71 36 L 72 35 L 73 35 L 74 36 L 74 40 L 73 41 L 73 45 L 72 46 L 72 48 L 70 50 L 70 51 L 69 52 L 69 53 L 68 54 L 68 55 L 67 56 L 67 60 L 68 61 L 69 61 L 70 62 L 74 62 L 75 61 L 78 61 L 79 60 L 82 60 L 83 59 L 86 59 L 87 58 L 88 58 L 88 55 L 85 55 L 84 56 L 81 56 L 80 57 L 77 57 L 76 58 L 72 58 L 71 57 L 71 54 L 73 52 L 73 51 L 74 50 L 74 49 L 75 48 L 75 45 L 76 44 L 76 40 L 77 39 L 77 38 L 78 37 L 78 35 L 79 34 L 79 30 L 78 29 L 76 29 L 76 30 L 74 32 L 72 32 L 71 33 L 68 33 L 66 35 L 66 36 L 67 36 L 68 37 L 68 38 L 67 39 L 64 39 L 63 38 L 63 33 L 66 30 L 66 28 L 63 28 L 62 29 L 60 29 L 59 30 L 57 30 L 56 31 L 55 31 L 53 33 L 54 34 L 54 35 L 51 38 L 50 37 L 50 32 L 51 31 L 51 27 L 52 26 L 52 21 L 51 20 Z M 29 40 L 31 40 L 32 41 L 32 43 L 29 46 L 28 46 L 27 47 L 26 47 L 24 45 Z M 57 34 L 60 34 L 61 35 L 61 39 L 60 40 L 55 40 L 54 39 L 54 37 Z"/>
  </g>
</svg>